Simulation
nRows=44
nColumns=15
endheader
time  TH_x TH_y TH_z SC_y  SC_z  SC_x  AC_y  AC_z  AC_x  GH_y  GH_z  GH_yy  EL_x  PS_y
0.0  0.000000  0.000000  0.000000  -10.952212556803378  8.456517334035894  26.7271609981099  5.897972283080145  -26.39895236081355  -15.215505251778891  17.129092703441607  -1.8644837908645322  6.381530009451549  26.023528871861522  0.000000
0.015  0.000000  0.000000  0.000000  -11.60541772124821  8.643037534800545  26.84692038279732  6.011318615553547  -26.244948275281192  -15.172927947612196  16.73537834317004  -0.9100936650492878  5.997258390445541  25.99225622979571  0.000000
0.03  0.000000  0.000000  0.000000  -11.576141342249374  8.693991248121309  26.88713734543949  5.969034027806077  -26.191819537370264  -15.23964674127055  16.41334568484004  0.13912123178050462  5.622377426937699  25.79441289170749  0.000000
0.045  0.000000  0.000000  0.000000  -11.646645890327793  8.752546896045526  26.922153924336737  5.961887449510296  -26.15657515105633  -15.261883186579608  16.269751334014988  0.9259556345564404  5.343715087225889  25.642742758486005  0.000000
0.06  0.000000  0.000000  0.000000  -11.62244965599024  8.766488541871444  26.95829756745587  5.949519066209496  -26.110924592529532  -15.303418800334965  16.18677148501772  1.5723119867172168  5.026182017946307  25.55543207715419  0.000000
0.075  0.000000  0.000000  0.000000  -11.598937480986258  8.790228785325978  27.01653421179205  5.945399678037784  -26.110640680116923  -15.336429274251673  16.199114700264257  2.1180405807066345  4.70033861080883  25.448280768684544  0.000000
0.09  0.000000  0.000000  0.000000  -11.559070562978572  8.789116968547876  27.082560247967177  5.9460944535156335  -26.090745223526948  -15.37399190042626  16.264935685020788  2.5765274928856132  4.328029660659789  25.388879308967613  0.000000
0.105  0.000000  0.000000  0.000000  -11.5235709240395  8.781705963998895  27.160094001540326  5.94498251618343  -26.108694731245095  -15.418245088492792  16.387813747948357  3.0213229095848257  3.9201841792296332  25.32350812642419  0.000000
0.12  0.000000  0.000000  0.000000  -11.49688733870139  8.774223525394955  27.243910691671992  5.956065943915621  -26.116670224638607  -15.450102042867364  16.544378299240066  3.4032813653780933  3.4650222209431  25.270147513839177  0.000000
0.135  0.000000  0.000000  0.000000  -11.469185844773309  8.752783033554199  27.32735335612967  5.9582714663056615  -26.141528236484454  -15.494264035297924  16.735884338355525  3.786207646206745  2.9782820445577203  25.225338932753942  0.000000
0.15  0.000000  0.000000  0.000000  -11.45147800642617  8.739484603945643  27.417307473383822  5.974818532277392  -26.162285646048048  -15.521924935597522  16.94551093165308  4.105922345835664  2.456620715099413  25.171462114142994  0.000000
0.16499999999999998  0.000000  0.000000  0.000000  -11.422878813126768  8.71386750967468  27.501271486412328  5.981359603970096  -26.19921938586378  -15.55909282749967  17.169872591468803  4.414640528033588  1.913405523428955  25.12149714461939  0.000000
0.18  0.000000  0.000000  0.000000  -11.399205498946394  8.690625033748764  27.59179328760019  6.006487045387402  -26.223617398090113  -15.575502025866394  17.39560717127465  4.635440093198  1.3518571163558586  25.06011915741698  0.000000
0.195  0.000000  0.000000  0.000000  -11.355612038437807  8.668738350816623  27.677816957198175  6.027234220354943  -26.2810630425798  -15.58970612648313  17.611895842484515  4.824339999839625  0.7784141527972254  24.98679345349761  0.000000
0.21  0.000000  0.000000  0.000000  -11.304281568892955  8.635307039011607  27.775300991909734  6.073836133850274  -26.31249721032996  -15.57937867444801  17.802738079707268  4.909893082980086  0.19957346106261062  24.912791749667598  0.000000
0.22499999999999998  0.000000  0.000000  0.000000  -11.234664398968844  8.62264002668184  27.884099707546557  6.132519943011754  -26.394743912042184  -15.54370036865001  17.949657803612634  4.956264917113235  -0.38763022751512355  24.811025877031856  0.000000
0.24  0.000000  0.000000  0.000000  -11.140341569992913  8.587759427772895  28.031967588757364  6.231565102297439  -26.460069872444656  -15.485372115305093  18.02681939600224  4.956009401623549  -0.9823846659332223  24.725576275039902  0.000000
0.255  0.000000  0.000000  0.000000  -11.052540857099242  8.574479009309695  28.239768164143943  6.363289637335754  -26.576378366181068  -15.391193571586188  18.036383752728753  4.994038117429843  -1.5697251494365068  24.631052662479167  0.000000
0.27  0.000000  0.000000  0.000000  -10.91828330311713  8.549003545623986  28.573596210851147  6.55601059379569  -26.723848956629322  -15.306624445591206  17.894819231697358  5.1704667975866805  -2.2099332640999534  24.581406028910603  0.000000
0.285  0.000000  0.000000  0.000000  -10.83221357640343  8.548282487934747  29.088924426978117  6.816838254348878  -26.86040661405429  -15.180591541293323  17.63358362999968  5.509165409668495  -2.8656455302175754  24.552762505047145  0.000000
0.3  0.000000  0.000000  0.000000  -10.747839694626009  8.573752323198988  29.871826899162745  7.206009259221152  -27.158246296549063  -15.05284984406631  17.167357285596538  6.35879215505393  -3.669322379919168  24.566755811317737  0.000000
0.315  0.000000  0.000000  0.000000  -10.89088753622193  8.566340376788103  30.99109309341969  7.850516818837387  -27.47835789597096  -14.730804259997003  16.52521574644525  7.727984311445821  -4.615589373810928  24.566177479803553  0.000000
0.32999999999999996  0.000000  0.000000  0.000000  -11.301096012557412  8.644415148564052  32.5851068135728  8.877709516923924  -28.223671638477708  -14.163995787647435  15.545217456926913  10.080011090299225  -5.912142208618792  24.451135917774426  0.000000
0.345  0.000000  0.000000  0.000000  -12.278244208858178  8.732346623192374  34.545026851750336  10.698580041399719  -29.294180869924443  -12.653508417556846  13.917072568265588  13.363725258921336  -7.7001145035418785  24.1810771634132  0.000000
0.36  0.000000  0.000000  0.000000  -14.54155449833767  9.641216227691142  37.78279072314312  13.956226625165817  -30.73941729148054  -10.117955924810353  11.374852300084008  16.564952431061  -9.875459248625559  24.208825352945766  0.000000
0.375  0.000000  0.000000  0.000000  -20.304164017588867  9.825944866386124  45.22284335898068  18.622193820376573  -32.95153638363923  -7.79655343091519  7.743351656101099  18.516428360945955  -13.366870340964995  24.896679911323453  0.000000
0.39  0.000000  0.000000  0.000000  -32.20056301269019  2.0027731468824013  52.624559619459234  31.647628827100093  -35.70542894477819  -0.16043078530311286  5.093642985155418  22.453968477234447  -18.066818740727868  24.132914087291592  0.000000
0.40499999999999997  0.000000  0.000000  0.000000  -44.73205672476694  -8.460092296606618  54.48332707982422  44.96793363540616  -39.964772741932215  6.480562325190434  10.139977073388483  30.860581102090084  -17.70945757181247  24.932740539736205  0.000000
0.42  0.000000  0.000000  0.000000  -51.996859212775384  -9.403188245881317  48.99787358925451  41.80420901060661  -39.181451727621855  4.530429069608296  26.048514736158495  36.312043626080644  -9.684523616327375  30.685801247913048  0.000000
0.435  0.000000  0.000000  0.000000  -54.500077380628696  -3.131449169226359  31.70800845054905  41.48843941847981  -27.741701074242126  14.815897730251706  35.265535902841464  35.63921974544204  -2.6505403849899247  33.98621401335159  0.000000
0.44999999999999996  0.000000  0.000000  0.000000  -52.25049121875087  4.000999753892719  19.485001527895964  49.4918361868977  -22.88160765034025  31.817909636530572  27.9890814744081  34.11010212931409  -0.25775711878428625  29.19365957485671  0.000000
0.46499999999999997  0.000000  0.000000  0.000000  -45.03601734300246  3.4296905824088824  22.91148318146582  50.46049965416037  -21.414829621704964  31.275315799729455  18.16679637062889  29.277819191026687  -2.795960207341971  22.72685073810498  0.000000
0.48  0.000000  0.000000  0.000000  -34.550983086571165  1.7208382728190872  21.446265632883946  44.24449885100224  -14.705587433411257  27.23423935641797  13.551804355194657  21.85740811767958  -8.136052056635759  22.707080894258812  0.000000
0.495  0.000000  0.000000  0.000000  -27.186740371658587  3.5287681961465287  15.877978279644996  39.82810860367249  -12.74497282466803  28.352277304917905  13.983302953750366  18.93220338705848  -11.445141571771472  21.71259602405126  0.000000
0.51  0.000000  0.000000  0.000000  -24.268683314614954  4.088033123229687  15.40794359637775  39.947857806920695  -14.221349727074479  28.44375976574707  16.26259128955998  18.50445567583357  -13.588476285284504  17.31579080346094  0.000000
0.525  0.000000  0.000000  0.000000  -23.267245024391165  4.853607052449129  16.8892235273961  40.5205966917739  -16.03972178566413  28.337877957774644  18.082493103391613  17.84910373351964  -15.092637902096392  14.2046226985237  0.000000
0.54  0.000000  0.000000  0.000000  -23.52386054643035  5.516278909870392  18.557763270563928  41.533040825328996  -17.55896273766522  28.330002073496452  19.426101061866042  17.9520236501679  -16.449562200817702  12.083080704748921  0.000000
0.5549999999999999  0.000000  0.000000  0.000000  -24.010700549607762  5.140047543907462  18.75816537696738  41.99421800001718  -17.693539049267937  28.589596126337906  19.878621599414046  19.195621271041805  -17.275498154953464  10.43668234565047  0.000000
0.57  0.000000  0.000000  0.000000  -25.01853990304661  4.147222438129656  18.72035769119831  42.26144461171994  -16.203312333219216  28.576884231079376  18.744604202072214  20.491189639454923  -17.889117648960685  9.073850311720784  0.000000
0.585  0.000000  0.000000  0.000000  -29.544982000589634  1.3351618944714831  18.82448807193445  44.07327186341665  -14.716611621609337  28.96480941373856  16.744717373881237  22.77169488865098  -17.546586204296887  7.995453638946715  0.000000
0.6  0.000000  0.000000  0.000000  -40.68902556723364  2.182578554912415  23.079969510405917  48.290685322418696  -17.94577614092176  29.086811272978952  17.8476732813396  23.38892799895711  -14.834341966064779  6.806501552199151  0.000000
0.615  0.000000  0.000000  0.000000  -56.34846754824979  5.526297543906134  26.487493824179428  50.73706817613296  -22.185804803007095  28.277399187686623  25.702829759184432  20.901506923900797  -10.895317019760032  8.83372067113928  0.000000
0.63  0.000000  0.000000  0.000000  -72.39077500904149  -5.487424377427744  18.132109118182306  49.57412230093781  -22.10712541221676  28.15273311952667  31.840627434455094  22.931981261747765  -8.458265783063917  12.189381832256686  0.000000
0.645  0.000000  0.000000  0.000000  -64.01632814175966  -9.072321546556491  14.221455648808403  59.36128702104417  -20.446106817014652  19.484821912263094  25.378949597355138  35.975875742070805  -16.117073898854443  12.028072989670806  0.000000
